<svg width="200" height="200" xmlns="http://www.w3.org/2000/svg" fill="none">
 <defs>
  <linearGradient y2="0.50048" x2="1" y1="0.50048" x1="0" id="paint0_linear_5245_8771">
   <stop stop-color="#3EF2C9"/>
   <stop stop-color="#1CDFD7" offset="1"/>
  </linearGradient>
 </defs>
 <g>
  <title>Layer 1</title>
  <path stroke="null" id="svg_5" fill="url(#paint0_linear_5245_8771)" d="m104.26223,193.89437c-2.83208,-2.5029 -4.91809,-6.06395 -5.70538,-10.2842l-23.86159,-128.25572l-21.62393,25.78982l0.41417,0c8.93482,0 16.17635,7.95703 16.17635,17.77485c0,9.81687 -7.24978,17.76535 -16.17635,17.76535l-37.15051,0c-0.05484,0.00095 -0.10968,0.00095 -0.16452,0.00095c-3.50642,0 -7.0194,-1.24243 -9.94518,-3.75957c-0.8365,-0.7181 -1.60698,-1.52454 -2.2999,-2.40601c-0.78393,-0.99641 -1.45137,-2.06691 -2.00138,-3.19155c-1.22754,-2.50385 -1.924,-5.3677 -1.924,-8.40917l0,-0.00665c-0.00135,-4.30631 1.41285,-8.62507 4.27656,-12.04108l67.82559,-80.87372c2.24329,-2.78814 5.29929,-4.82931 8.87308,-5.63318c8.74556,-1.96888 17.29396,4.23593 19.08641,13.85485l23.86201,128.25971l21.62965,-25.79457l-0.42561,0c-8.93532,0 -16.17661,-7.95703 -16.17661,-17.7739c0,-9.81791 7.24129,-17.77495 16.17661,-17.77495l37.30915,0c8.93448,0 16.17576,7.95703 16.17576,17.77495c0,1.96622 -0.29019,3.85836 -0.82683,5.62701c-0.70066,2.31672 -1.84964,4.50997 -3.452,6.42205l-67.78664,80.83744c-0.86468,1.08 -1.85049,2.04886 -2.94143,2.8781c-2.75049,2.09636 -5.97286,3.15166 -9.20028,3.15166c-0.12449,0 -0.24982,-0.00095 -0.3743,-0.00475c-0.56356,-0.0133 -1.12291,-0.05984 -1.67469,-0.13678c-2.88507,-0.40274 -5.69529,-1.66037 -8.09419,-3.79092z"/>
 </g>
</svg>